<svg xmlns="http://www.w3.org/2000/svg" width="77" height="45" viewBox="0 0 137 76" fill="none">
 <path d="M0.744447 46.9832L2.40453 46.5366C2.91591 46.4095 3.3303 46.2711 3.65022 46.1214C3.97015 45.973 4.2145 45.7704 4.38454 45.515C4.55458 45.2596 4.66038 44.9312 4.70446 44.5261C4.74603 44.1223 4.7687 43.58 4.7687 42.8994V8.70392C4.7687 7.93899 4.74729 7.32251 4.70446 6.85323C4.66164 6.38522 4.57725 6.00275 4.44878 5.70458C4.3203 5.40766 4.11877 5.16233 3.84167 4.9711C3.56457 4.77987 3.21316 4.57857 2.78743 4.36469L0.425781 3.21729V1.75033L14.4773 0.474609L15.1801 0.985403C15.1373 1.62327 15.0945 2.32529 15.0516 3.09022C15.0088 3.77086 14.9773 4.5685 14.9559 5.48315C14.9345 6.3978 14.9244 7.38667 14.9244 8.44978V12.7877C14.9244 13.681 14.9131 14.5 14.8929 15.2436C14.8715 15.9884 14.8388 16.6577 14.7972 17.2528C14.7544 17.9334 14.733 18.5512 14.733 19.1035H15.0529C16.7986 17.9133 18.6615 16.8816 20.6415 16.0098C22.6215 15.1392 24.7817 14.7013 27.1244 14.7013C29.8488 14.7013 31.9245 15.4034 33.3516 16.8062C34.7774 18.2102 35.4916 20.3578 35.4916 23.2502V42.9006C35.4916 43.6241 35.513 44.1877 35.5558 44.5915C35.5974 44.9967 35.7044 45.325 35.8757 45.5804C36.0458 45.8358 36.2801 46.0271 36.5786 46.1541C36.8758 46.2812 37.2814 46.4095 37.7915 46.5366L39.4516 46.9832V48.7056H21.6315V46.9832L23.1644 46.6007C23.6329 46.4737 24.0045 46.3454 24.2816 46.2183C24.5575 46.0912 24.7703 45.91 24.9202 45.676C25.0688 45.4433 25.1646 45.1124 25.2074 44.6872C25.2489 44.2619 25.2716 43.6668 25.2716 42.9006V25.7387C25.2716 23.7824 24.9089 22.4438 24.1859 21.7191C23.4616 20.9969 22.3545 20.6346 20.8645 20.6346C19.7561 20.6346 18.6703 20.7302 17.6073 20.9214C16.5429 21.1127 15.6487 21.2938 14.9244 21.4637V42.8994C14.9244 43.6643 14.9458 44.2607 14.9887 44.6859C15.0302 45.1111 15.126 45.4521 15.2758 45.7062C15.4245 45.9616 15.6373 46.1428 15.9144 46.2485C16.1903 46.3554 16.5631 46.4724 17.0329 46.5995L18.5658 46.982V48.7043H0.744447V46.982V46.9832Z" fill="#2E2F75"></path>
 <path d="M57.9728 49.4716C52.3943 49.4716 48.2214 47.9191 45.4542 44.8141C42.6857 41.7103 41.3027 37.4352 41.3027 31.9901C41.3027 29.2261 41.7713 26.7702 42.7084 24.6214C43.6442 22.4738 44.9013 20.6659 46.477 19.1989C48.0514 17.732 49.8299 16.6148 51.8099 15.8498C53.7899 15.0836 55.8442 14.7012 57.9741 14.7012C60.104 14.7012 62.1785 14.9918 63.9456 15.5693C65.7115 16.148 67.2129 17.0815 68.4485 18.3673C69.6829 19.6531 70.6514 21.3151 71.3543 23.3507C72.0571 25.3876 72.4287 27.8635 72.4715 30.7786H51.3942C51.4358 33.3904 51.7142 35.5393 52.2243 37.2239C52.7356 38.9085 53.4473 40.2572 54.3642 41.2687C55.2799 42.279 56.3858 42.9848 57.6857 43.3849C58.9843 43.7862 60.4642 43.985 62.1243 43.985C64.1257 43.985 65.8815 43.7409 67.393 43.2515C68.9045 42.7634 70.2774 42.1985 71.513 41.5606V43.6654C70.9588 44.3033 70.2459 44.9638 69.373 45.6432C68.5001 46.3238 67.4887 46.9503 66.3388 47.5253C65.1888 48.099 63.9116 48.5683 62.506 48.9294C61.1003 49.2904 59.5888 49.4716 57.9716 49.4716H57.9728ZM57.4615 17.2539C56.6528 17.2539 55.8971 17.4539 55.1943 17.8527C54.4915 18.2528 53.8629 18.8932 53.31 19.7764C52.7558 20.6596 52.3087 21.7944 51.9686 23.1821C51.6272 24.5698 51.4358 26.2519 51.3942 28.2271L62.3158 27.6597C62.3158 25.7675 62.2402 24.1597 62.0928 22.8349C61.9429 21.5113 61.6873 20.4382 61.3258 19.6191C60.963 18.8001 60.463 18.2012 59.8244 17.8213C59.1858 17.4426 58.3973 17.2526 57.4615 17.2526V17.2539Z" fill="#2E2F75"></path>
 <path d="M80.2008 61.976C78.2851 61.976 76.7094 61.5394 75.475 60.6675C74.2394 59.7957 73.6222 58.6583 73.6222 57.2543C73.6222 56.0629 73.9837 55.1381 74.708 54.4789C75.4309 53.8196 76.4109 53.49 77.6465 53.49C78.8821 53.49 79.8709 53.7454 80.4893 54.2562C81.1065 54.767 81.5851 55.5961 81.9264 56.7448C82.1393 57.5952 82.5436 58.0205 83.1394 58.0205C83.8195 58.0205 84.545 57.5525 85.3108 56.6164C86.0779 55.6804 87.0137 53.9366 88.1209 51.3852L88.8237 49.727L76.9437 22.7405C76.4751 21.7202 76.0909 20.9012 75.7937 20.2847C75.4952 19.6682 75.2193 19.1788 74.9636 18.8177C74.708 18.4566 74.4523 18.2013 74.1966 18.0515C73.9409 17.9031 73.6424 17.7647 73.3023 17.6364L72.1523 17.2539V15.5957H90.9939V17.2539L89.2696 17.7005C88.631 17.9144 88.141 18.2013 87.801 18.5623C87.4596 18.9247 87.2896 19.4669 87.2896 20.1891C87.2896 21.1251 87.5868 22.3165 88.1839 23.7621L93.804 37.9888H94.0597L99.4253 23.7621C100.021 22.1895 100.32 20.9125 100.32 19.9337C100.32 19.2958 100.148 18.8177 99.8082 18.4982C99.4669 18.1786 98.9555 17.9144 98.2754 17.7005L96.4868 17.2539V15.5957H108.367V17.2539L106.898 17.7647C106.515 17.8918 106.185 18.0629 105.908 18.2755C105.631 18.4894 105.365 18.7963 105.11 19.2002C104.854 19.6053 104.577 20.1362 104.28 20.7955C103.981 21.456 103.618 22.3165 103.194 23.3796L91.3138 51.9614C90.6752 53.4498 90.0253 54.811 89.3653 56.044C88.7041 57.2769 87.9597 58.33 87.1296 59.2018C86.2996 60.0737 85.3196 60.7544 84.1911 61.2438C83.0625 61.7319 81.7325 61.9772 80.1996 61.9772L80.2008 61.976Z" fill="#2E2F75"></path>
 <path d="M21.2063 75.6399L22.6976 69.0537H23.2594L25.417 73.9L27.5633 69.0537H28.125L29.6226 75.6399H28.8354L27.6955 70.6012L25.6588 75.2071H25.1638L23.1271 70.6012L21.9873 75.6399H21.2051H21.2063Z" fill="#2E2F75"></path>
 <path d="M41.8937 69.0547H42.8522L45.6598 75.6409H44.8398L44.2403 74.2293H40.5133L39.9137 75.6409H39.0938L41.895 69.0547H41.8937ZM40.7929 73.5713H43.9531L42.3736 69.8637L40.7941 73.5713H40.7929Z" fill="#2E2F75"></path>
 <path d="M60.4429 75.6409H59.4466L56.9199 72.6818L56.265 73.3549V75.6409H55.4941V69.0547H56.265V72.3296L59.4743 69.0547H60.4819L57.4263 72.1647L60.4429 75.6409Z" fill="#2E2F75"></path>
 <path d="M70.2422 75.6409V69.0547H74.9327V69.7139H71.013V71.7835H74.2551V72.4428H71.013V74.9829H74.9327V75.6422H70.2422V75.6409Z" fill="#2E2F75"></path>
 <path d="M87.9388 75.7622C87.3216 75.7622 86.7901 75.6339 86.343 75.376C85.8958 75.1193 85.5507 74.7734 85.3114 74.3381C85.0708 73.904 84.9512 73.4222 84.9512 72.8912V69.0527H85.722V72.8912C85.722 73.2926 85.8077 73.6612 85.9802 73.9971C86.1528 74.333 86.4047 74.601 86.7347 74.801C87.0647 75.0023 87.4665 75.1017 87.9401 75.1017C88.4137 75.1017 88.8306 75.0011 89.1593 74.7985C89.4881 74.596 89.7362 74.3267 89.905 73.9921C90.0737 73.6562 90.1581 73.2901 90.1581 72.8912V69.0527H90.929V72.8912C90.929 73.2901 90.8597 73.6625 90.7224 74.0084C90.5851 74.3544 90.3861 74.6601 90.1279 74.9231C89.8697 75.186 89.5561 75.3924 89.187 75.5396C88.818 75.6868 88.4023 75.761 87.9401 75.761L87.9388 75.7622Z" fill="#2E2F75"></path>
 <path d="M101.002 75.6409V69.0547H103.468C103.879 69.0547 104.25 69.1402 104.58 69.3113C104.91 69.4824 105.174 69.7127 105.37 70.0033C105.567 70.2939 105.665 70.6185 105.665 70.9796C105.665 71.3407 105.565 71.6716 105.365 71.9634C105.165 72.2553 104.899 72.4856 104.566 72.6554C104.234 72.8252 103.869 72.9095 103.468 72.9095H101.773V75.6434H101.002V75.6409ZM101.773 72.249H103.408C103.68 72.249 103.928 72.1924 104.153 72.0779C104.379 71.9634 104.559 71.8087 104.692 71.6124C104.826 71.4162 104.894 71.1947 104.894 70.9469C104.894 70.699 104.827 70.4776 104.692 70.2813C104.559 70.0851 104.379 69.9303 104.153 69.8158C103.928 69.7014 103.678 69.6447 103.408 69.6447H101.773V72.2516V72.249Z" fill="#2E2F75"></path>
 <path d="M133.858 16.6876C133.036 18.1017 131.576 20.6331 130.096 23.1543C127.694 27.2457 126.436 31.6189 126.414 36.3142C126.412 36.7067 126.419 37.103 126.433 37.5006C126.444 37.7912 126.412 38.0214 126.336 38.1925C126.166 38.4102 125.938 38.5498 125.686 38.5687H125.681C125.592 38.5662 125.492 38.5536 125.385 38.531C125.201 38.4693 125.036 38.3435 124.906 38.1711C124.906 38.1699 124.905 38.1699 124.905 38.1686C124.86 38.0566 124.83 37.9334 124.823 37.8352C124.791 37.3961 124.764 36.9571 124.74 36.518C124.666 35.1529 124.613 33.7841 124.448 32.4304C123.962 28.4484 122.071 25.0138 120.066 21.632C118.828 19.5435 117.499 17.4978 116.426 15.3263C114.983 12.4025 114.7 9.32893 116.14 6.28556C119.171 -0.129554 126.888 -1.69464 132.272 2.81317C135.846 5.80496 136.808 10.9381 133.856 16.6876H133.858Z" fill="#2E2F75"></path>
 <path d="M125.4 53.8722C129.073 53.8722 132.051 50.8975 132.051 47.2281C132.051 43.5586 129.073 40.584 125.4 40.584C121.726 40.584 118.748 43.5586 118.748 47.2281C118.748 50.8975 121.726 53.8722 125.4 53.8722Z" fill="#2E2F75"></path>
            </svg>